<?xml version="1.0" encoding="utf-8"?>
<!-- Generator: Adobe Illustrator 24.0.0, SVG Export Plug-In . SVG Version: 6.00 Build 0)  -->
<svg version="1.1" id="Layer_1" xmlns="http://www.w3.org/2000/svg" xmlns:xlink="http://www.w3.org/1999/xlink" x="0px" y="0px"
	 viewBox="0 0 135 135" style="enable-background:new 0 0 135 135;" xml:space="preserve">
<style type="text/css">
	.st0{fill:#1677F0;}
	.st1{fill:#FFFFFF;}
</style>
<g>
	<path class="st0" d="M135,67.5C135,30.2,104.8,0,67.5,0S0,30.2,0,67.5c0,33.7,24.7,61.6,57,66.7V87H39.8V67.5H57V52.6
		C57,35.7,67,26.4,82.4,26.4c7.4,0,15.1,1.3,15.1,1.3v16.6H89c-8.4,0-11,5.2-11,10.5v12.7h18.7l-3,19.5H78v47.2
		C110.3,129.1,135,101.2,135,67.5z"/>
	<path class="st1" d="M93.8,87l3-19.5H78V54.8c0-5.3,2.6-10.5,11-10.5h8.5V27.7c0,0-7.7-1.3-15.1-1.3C67,26.4,57,35.7,57,52.6v14.9
		H39.8V87H57v47.2c3.4,0.5,7,0.8,10.5,0.8c3.6,0,7.1-0.3,10.5-0.8V87H93.8z"/>
</g>
</svg>
