<?xml version="1.0" encoding="utf-8"?>
<!-- Generator: Adobe Illustrator 24.0.0, SVG Export Plug-In . SVG Version: 6.00 Build 0)  -->
<svg version="1.1" id="Layer_1" xmlns="http://www.w3.org/2000/svg" xmlns:xlink="http://www.w3.org/1999/xlink" x="0px" y="0px"
	 viewBox="0 0 135 135" style="enable-background:new 0 0 135 135;" xml:space="preserve">
<style type="text/css">
	.st0{clip-path:url(#SVGID_2_);}
	.st1{fill:#FFFFFF;}
</style>
<g>
	<g>
		<defs>
			<circle id="SVGID_1_" cx="67.5" cy="67.7" r="67.5"/>
		</defs>
		<clipPath id="SVGID_2_">
			<use xlink:href="#SVGID_1_"  style="overflow:visible;"/>
		</clipPath>
		<g class="st0">
			<defs>
				<rect id="SVGID_3_" x="-5" y="-4.8" width="145" height="145"/>
			</defs>
			<clipPath id="SVGID_4_">
				<use xlink:href="#SVGID_3_"  style="overflow:visible;"/>
			</clipPath>
			<g style="clip-path:url(#SVGID_4_);">
				
					<image style="overflow:visible;" width="304" height="303" xlink:href="517A8EC7.jpg"  transform="matrix(0.48 0 0 0.48 -5.46 -5.22)">
				</image>
			</g>
		</g>
	</g>
	<g>
		<g>
			<path class="st1" d="M67.5,32.8c11.3,0,12.7,0,17.2,0.2c4.1,0.2,6.4,0.9,7.9,1.5c2,0.8,3.4,1.7,4.9,3.2c1.5,1.5,2.4,2.9,3.2,4.9
				c0.6,1.5,1.3,3.7,1.5,7.9c0.2,4.5,0.2,5.8,0.2,17.2s0,12.7-0.2,17.2c-0.2,4.1-0.9,6.4-1.5,7.9c-0.8,2-1.7,3.4-3.2,4.9
				c-1.5,1.5-2.9,2.4-4.9,3.2c-1.5,0.6-3.7,1.3-7.9,1.5c-4.5,0.2-5.8,0.2-17.2,0.2c-11.3,0-12.7,0-17.2-0.2
				c-4.1-0.2-6.4-0.9-7.9-1.5c-2-0.8-3.4-1.7-4.9-3.2c-1.5-1.5-2.4-2.9-3.2-4.9c-0.6-1.5-1.3-3.7-1.5-7.9c-0.2-4.5-0.2-5.8-0.2-17.2
				s0-12.7,0.2-17.2c0.2-4.1,0.9-6.4,1.5-7.9c0.8-2,1.7-3.4,3.2-4.9c1.5-1.5,2.9-2.4,4.9-3.2c1.5-0.6,3.7-1.3,7.9-1.5
				C54.8,32.9,56.2,32.8,67.5,32.8 M67.5,25.2c-11.5,0-13,0-17.5,0.3c-4.5,0.2-7.6,0.9-10.3,2c-2.8,1.1-5.2,2.5-7.5,4.9
				c-2.4,2.4-3.8,4.7-4.9,7.5c-1.1,2.7-1.8,5.8-2,10.3c-0.2,4.5-0.3,6-0.3,17.5c0,11.5,0,13,0.3,17.5c0.2,4.5,0.9,7.6,2,10.3
				c1.1,2.8,2.5,5.2,4.9,7.5c2.4,2.4,4.7,3.8,7.5,4.9c2.7,1.1,5.8,1.8,10.3,2c4.5,0.2,6,0.3,17.5,0.3c11.5,0,13,0,17.5-0.3
				c4.5-0.2,7.6-0.9,10.3-2c2.8-1.1,5.2-2.5,7.5-4.9c2.4-2.4,3.8-4.7,4.9-7.5c1.1-2.7,1.8-5.8,2-10.3c0.2-4.5,0.3-6,0.3-17.5
				s0-13-0.3-17.5c-0.2-4.5-0.9-7.6-2-10.3c-1.1-2.8-2.5-5.2-4.9-7.5c-2.4-2.4-4.7-3.8-7.5-4.9c-2.7-1.1-5.8-1.8-10.3-2
				C80.5,25.2,79,25.2,67.5,25.2L67.5,25.2z"/>
			<path class="st1" d="M67.5,45.8c-12.1,0-21.8,9.8-21.8,21.8s9.8,21.8,21.8,21.8c12.1,0,21.8-9.8,21.8-21.8S79.6,45.8,67.5,45.8z
				 M67.5,81.8c-7.8,0-14.2-6.3-14.2-14.2s6.3-14.2,14.2-14.2s14.2,6.3,14.2,14.2S75.3,81.8,67.5,81.8z"/>
			<circle class="st1" cx="90.2" cy="45" r="5.1"/>
		</g>
	</g>
</g>
</svg>
