<?xml version="1.0" encoding="utf-8"?>
<!-- Generator: Adobe Illustrator 24.0.0, SVG Export Plug-In . SVG Version: 6.00 Build 0)  -->
<svg version="1.1" id="Layer_1" xmlns="http://www.w3.org/2000/svg" xmlns:xlink="http://www.w3.org/1999/xlink" x="0px" y="0px"
	 viewBox="0 0 135 135" style="enable-background:new 0 0 135 135;" xml:space="preserve">
<style type="text/css">
	.st0{fill:#FFFFFF;}
	.st1{fill:#EC1555;}
	.st2{fill:#0CBAC6;}
</style>
<g>
	<circle cx="67.5" cy="67.5" r="67.5"/>
	<g>
		<g>
			<path class="st0" d="M49.5,94.6c0.1,0.1,0.2,0.1,0.2,0.2c0.7,0.5,1.3,1.3,2,1.9c2.2,1.8,4.7,2.8,7.6,2.9
				c6.8,0.4,12.7-4.7,13.5-11.4c0-0.3,0-0.7,0-1c0-20.2,0-40.4,0-60.6c0-1.4,0-1.4,1.4-1.4c3.1,0,6.1,0,9.2,0c0.3,0,0.6-0.1,0.9,0.1
				c0,0,0,0,0.1,0c0.1,0.2,0.2,0.3,0.2,0.5c1.2,5.4,4,9.8,8.5,13.1c0.3,0.2,0.5,0.5,0.8,0.7c0.2,0.2,0.4,0.3,0.6,0.5
				c0.7,0.4,1.2,1.1,1.9,1.6c2.5,2.1,5.3,3.5,8.4,4.3c0.3,0.1,0.6,0.1,0.8,0.3c0,0,0,0,0.1,0c0.2,0.2,0.2,0.4,0.2,0.7
				c0,3.6,0,7.1,0,10.7c0,0.8-0.1,0.9-0.9,0.9c-2.6,0-5.2-0.3-7.7-0.9c-4.4-1-8.4-2.8-12.1-5.2c-0.2-0.1-0.4-0.4-0.6-0.3
				c-0.3,0.1-0.1,0.5-0.1,0.7c0,10,0,20,0,30.1c0,7-2.3,13.3-6.9,18.6c-4.9,5.7-11.1,9-18.5,9.9c-5.7,0.7-11.2-0.3-16.3-2.9
				c-0.8-0.4-1.6-0.9-2.4-1.5c-0.2-0.2-0.5-0.4-0.7-0.6c-1.8-1.5-3-3.4-4.2-5.3c-1.8-3-2.9-6.2-3.5-9.7c-0.3-2-0.5-4-0.4-5.9
				c0.4-6.4,2.5-12.1,6.6-17.1c3.5-4.2,7.8-7.1,12.9-8.8c2.1-0.7,4.3-1.2,6.6-1.3c0.4,0,0.8-0.1,1.3-0.1c0.2,0,0.4,0,0.6,0.1
				c0,0,0,0,0.1,0c0.1,0.2,0.1,0.4,0.1,0.6c0,3.6,0,7.2,0,10.8c0,0.1,0,0.3,0,0.4c0,0.4-0.2,0.5-0.5,0.4c-1-0.3-2-0.4-3-0.5
				c-1.6-0.1-3.1,0.1-4.6,0.7c-5,1.8-8,5.4-8.6,10.6c-0.6,5.2,1.4,9.3,5.7,12.3C48.8,94.1,49.1,94.3,49.5,94.6z"/>
			<path class="st1" d="M40.1,107.2c0.2-0.1,0.3,0.1,0.4,0.2c3.2,2,6.7,3.3,10.4,3.9c1.9,0.3,3.8,0.4,5.7,0.3c6.4-0.3,12-2.4,17-6.5
				c4.7-3.9,7.9-8.9,9.5-14.8c0.5-1.9,0.8-3.8,0.9-5.7c0.1-1.1,0.1-2.2,0.1-3.3c0-9.6,0-19.1,0-28.7c0-0.2,0-0.4,0-0.7
				c0.2-0.1,0.4,0.1,0.5,0.2c3.4,2.3,7.1,4.1,11.1,5.1c2.2,0.6,4.4,1,6.7,1.2c0.9,0.1,1.9,0.1,2.8,0.1c0.4,0,0.4,0,0.4-0.4
				c0-0.5,0-0.9,0-1.4c0-3.2,0-6.5,0-9.7c0-0.2,0-0.4,0-0.6c0.9,0.1,1.7,0.3,2.5,0.3c0.5,0,1.1,0.1,1.6,0.1c0.3,0,0.4,0.1,0.3,0.3
				c0,0.1,0,0.2,0,0.3c0,4.7,0,9.3,0,14c0,0.1,0,0.2,0,0.3c0,0.4,0,0.4-0.4,0.4c-1.5,0-2.9-0.1-4.4-0.3c-3-0.4-5.8-1.1-8.6-2.2
				c-2.7-1-5.2-2.4-7.5-4c-0.1-0.1-0.3-0.2-0.5-0.3c0,0.3,0,0.5,0,0.7c0,10.2,0,20.4,0,30.6c0,5.4-1.4,10.5-4.3,15.1
				c-3.5,5.6-8.4,9.5-14.6,11.7c-3.8,1.4-7.6,1.9-11.6,1.6c-6.7-0.5-12.6-3.1-17.5-7.6C40.4,107.5,40.3,107.3,40.1,107.2z"/>
			<path class="st2" d="M84.2,25.4c-0.2,0-0.4,0-0.6,0c-3.3,0-6.6,0-9.9,0c-0.8,0-0.8,0-0.8,0.7c0,20.1,0,40.2,0,60.3
				c0,1.4-0.1,2.8-0.5,4.1c-1.5,4.7-4.7,7.8-9.5,8.9c-5.2,1.2-9.6-0.4-13.1-4.4c-0.1-0.1-0.1-0.2-0.1-0.2c1,0.4,2,0.8,3.1,1
				c3.4,0.7,6.5,0.2,9.5-1.7c3.4-2.1,5.4-5.1,6.1-9c0.1-0.7,0.2-1.5,0.2-2.2c0-20.1,0-40.2,0-60.4c0-0.9-0.1-0.8,0.8-0.8
				c4.6,0,9.3,0,13.9,0c0.1,0,0.2,0,0.3,0c0.5,0,0.5,0,0.5,0.5C84,23.3,84,24.4,84.2,25.4z"/>
			<path class="st2" d="M59.4,58.4c-2.8,0.1-5.6,0.5-8.3,1.4c-3.9,1.3-7.4,3.3-10.4,6.1c-4,3.6-6.7,8.1-8.1,13.2
				c-0.5,1.8-0.8,3.7-1,5.6c-0.1,1.1-0.1,2.3,0,3.4c0.2,3.2,0.8,6.3,2,9.2c1.4,3.3,3.2,6.3,5.7,8.9c0,0.1,0.1,0.1,0.1,0.2
				c-0.6-0.2-1-0.6-1.5-1c-4.6-3.6-7.8-8.2-9.6-13.9c-0.6-2-1-3.9-1.2-6c-0.1-1.5-0.2-3-0.1-4.4c0.2-3.4,1-6.7,2.4-9.8
				c1.5-3.2,3.5-6.1,6-8.6c3-2.9,6.4-5.1,10.3-6.5c2.5-0.9,5-1.4,7.6-1.6c1.9-0.1,3.8-0.1,5.6,0.1c0.3,0,0.4,0.1,0.4,0.4
				C59.4,56.3,59.4,57.4,59.4,58.4z"/>
			<path class="st1" d="M49.5,94.6c-1.1-0.5-2.1-1.3-3-2.1c-2.3-2.2-3.6-4.8-3.9-7.9c-0.7-6.5,3.4-12.1,9.1-13.9
				c2.4-0.7,4.9-0.8,7.3-0.1c0.1,0,0.3,0.1,0.4,0.1c0.1-0.2,0-0.4,0-0.6c0-3.7,0-7.3,0-11c0-0.2,0-0.4,0-0.6c1.4-0.1,2.8,0,4.2,0.2
				c0.2,0,0.3,0.1,0.3,0.3c0,0.1,0,0.2,0,0.3c0,4.8,0,9.7,0,14.5c0,0.2,0,0.4-0.1,0.6c-0.6-0.1-1.3-0.3-1.9-0.4
				c-3.7-0.5-7.1,0.4-10.1,2.7c-2.6,2-4.2,4.7-4.7,8c-0.6,3.5,0.1,6.7,2.1,9.6C49.3,94.3,49.4,94.5,49.5,94.6z"/>
			<path class="st1" d="M93.8,39.7c-1.4-0.8-2.6-1.9-3.8-3c-3-3.1-5-6.8-5.8-11.1c0,0,0-0.1,0-0.1c1.3-0.1,2.6,0,3.9,0
				c0.2,0,0.3,0.1,0.3,0.3c0,0.1,0,0.2,0,0.3c-0.1,3.7,1,7,2.8,10.2c0.6,1.1,1.4,2.2,2.2,3.2C93.7,39.5,93.8,39.6,93.8,39.7z"/>
			<path class="st2" d="M105.5,46.5c-3.7-0.8-7-2.5-9.9-5c-0.4-0.4-0.9-0.7-1.2-1.2c0.1,0,0.2,0.1,0.3,0.1c2.3,1.3,4.7,2.1,7.3,2.6
				c1,0.2,2,0.3,3,0.3c0.4,0,0.4,0,0.4,0.4C105.5,44.6,105.5,45.5,105.5,46.5z"/>
		</g>
	</g>
</g>
</svg>
